PathFileType	3	(X/Y/Z)	D:\Vicon Database\Healthy Subjects\S0040\Jan. 30, 2020\Force Plate Walk 6.trc
DataRate	CameraRate	NumFrames	NumMarkers	Units	OrigDataRate	OrigDataStartFrame	OrigNumFrames
100.0	100.0	4	53	mm	100.0	528	350	
Frame#	Time	sternum_cluster1			sternum_cluster2			sternum_cluster3			left_asis			right_asis			left_psis			right_psis			sacrum_cluster1			sacrum_cluster2			sacrum_cluster3			left_lat_femoral_epicondyle			left_anterior_thigh15			left_anterior_thigh25			left_anterior_thigh50			left_lateral_thigh25			left_lateral_thigh50			left_thigh_cluster1			left_thigh_cluster2			left_thigh_cluster3			left_fibular_head			left_tibial_tuberosity			left_anterior_shank30			left_lateral_malleolus			left_shank_cluster1			left_shank_cluster2			left_shank_cluster3			left_heel			left_metatarsal2			left_foot_cluster1			left_foot_cluster2			left_foot_cluster3			right_lat_femoral_epicondyle			right_anterior_thigh15			right_anterior_thigh25			right_anterior_thigh50			right_lateral_thigh25			right_lateral_thigh50			right_thigh_cluster1			right_thigh_cluster2			right_thigh_cluster3			right_fibular_head			right_tibial_tuberosity			right_lateral_distal_shank			right_anterior_shank30			right_lateral_malleolus			right_shank_cluster1			right_shank_cluster2			right_shank_cluster3			right_heel			right_metatarsal2			right_foot_cluster1			right_foot_cluster2			right_foot_cluster3			
		X1	Y1	Z1	X2	Y2	Z2	X3	Y3	Z3	X4	Y4	Z4	X5	Y5	Z5	X6	Y6	Z6	X7	Y7	Z7	X8	Y8	Z8	X9	Y9	Z9	X10	Y10	Z10	X11	Y11	Z11	X12	Y12	Z12	X13	Y13	Z13	X14	Y14	Z14	X15	Y15	Z15	X16	Y16	Z16	X17	Y17	Z17	X18	Y18	Z18	X19	Y19	Z19	X20	Y20	Z20	X21	Y21	Z21	X22	Y22	Z22	X23	Y23	Z23	X24	Y24	Z24	X25	Y25	Z25	X26	Y26	Z26	X27	Y27	Z27	X28	Y28	Z28	X29	Y29	Z29	X30	Y30	Z30	X31	Y31	Z31	X32	Y32	Z32	X33	Y33	Z33	X34	Y34	Z34	X35	Y35	Z35	X36	Y36	Z36	X37	Y37	Z37	X38	Y38	Z38	X39	Y39	Z39	X40	Y40	Z40	X41	Y41	Z41	X42	Y42	Z42	X43	Y43	Z43	X44	Y44	Z44	X45	Y45	Z45	X46	Y46	Z46	X47	Y47	Z47	X48	Y48	Z48	X49	Y49	Z49	X50	Y50	Z50	X51	Y51	Z51	X52	Y52	Z52	X53	Y53	Z53	
528	5.27	69.850922	1435.2866	-150.48189	56.313885	1408.3246	-142.61998	58.498859	1411.7601	-180.32373	60.318317	1063.0134	-39.662842	76.145706	1057.241	-290.76956	230.92854	1067.4386	-77.108719	238.81689	1063.947	-195.29129	245.04471	1122.2428	-145.2204	251.66023	1096.7573	-155.50801	251.89632	1092.7799	-116.34296	17.997856	539.03247	-25.432766	-54.126041	638.59277	-79.680031	-51.451466	723.95447	-61.96965	-18.764217	856.43896	-39.424797	49.016068	688.24854	3.5475397	73.973862	833.66479	34.538429	67.13147	786.66925	39.476406	64.323814	757.25214	35.122616	30.597708	774.11688	36.126877	7.9589076	458.89856	-23.287857	-43.114239	454.63699	-81.871796	-3.0864727	203.17841	-102.75228	60.005165	95.198784	-76.923347	-38.139084	398.80688	-112.92025	-40.973686	370.58798	-106.16087	-23.171988	373.6243	-140.14594	134.31963	63.090847	-116.27365	-84.254662	64.851952	-109.75624	-24.582619	113.3649	-106.05099	-47.905434	97.09301	-95.077988	-53.228882	102.14923	-132.68018	79.409157	511.80679	-320.58344	-10.574439	593.02301	-271.63379	-16.179005	678.68311	-265.68988	6.1363344	810.99078	-263.85181	92.523712	664.36646	-333.03278	116.59382	810.31598	-345.3927	117.68629	760.68658	-354.24747	102.48937	735.10016	-356.41022	139.48962	729.12744	-343.61691	120.01057	467.25085	-325.73892	80.744545	420.66901	-283.78342	333.40445	314.1825	-296.08334				410.91464	247.51764	-279.47415	136.63449	377.0379	-224.88631	163.24007	368.05518	-214.34879				472.05984	299.96936	-239.89537	380.52499	101.54168	-237.08807	358.49915	170.14983	-238.94667	362.54544	142.33672	-229.04706	360.51703	143.33441	-266.57141
529	5.28	56.369785	1437.9089	-150.57701	42.942699	1410.8938	-142.80679	45.24789	1414.3789	-180.49155	47.000957	1065.3838	-39.186085	63.020824	1060.3535	-290.05627	217.29907	1069.9451	-76.936295	225.62936	1066.8597	-194.72028	231.87099	1125.3207	-144.38336	238.2321	1099.4573	-155.08473	238.57001	1095.8416	-115.59777	13.192382	539.50934	-25.432886	-60.628109	637.74982	-80.394203	-59.785999	723.32208	-62.444149	-29.808189	856.53668	-39.157978	41.099182	689.37598	3.5322607	63.267864	835.21143	34.614304	57.978149	787.6604	38.946209	54.694866	758.89648	35.381084	20.922876	774.92987	35.995079	4.3621712	459.03677	-23.356634	-46.299404	454.06744	-82.181503	-4.1803718	203.05667	-102.96557	59.631901	95.490837	-76.935463	-40.503136	398.44836	-113.18742	-43.153553	370.27432	-106.42696	-25.246468	373.44272	-140.37033	134.12564	63.464722	-116.19901	-84.506241	64.460945	-109.78348	-24.952328	113.25745	-106.02442	-48.230427	96.886742	-95.07708	-53.554546	101.91883	-132.66537	53.234051	516.12823	-320.56439	-33.643253	599.3598	-270.75848	-36.540077	684.8302	-264.49399	-10.711179	816.30414	-262.7554	71.123817	668.03375	-332.83517	99.632965	813.80225	-344.74066	98.538948	763.27985	-354.01895	82.544205	738.51062	-355.72668	119.59383	731.74182	-343.1886	92.88842	470.37045	-325.28607	53.137608	424.85394	-283.18167	303.58218	313.52808	-295.53625				381.21045	245.98645	-278.37982	108.80786	381.54086	-224.20274	134.75076	371.48486	-213.55887				443.96289	295.89084	-238.57458	344.10425	101.66064	-236.73318	325.05688	171.12776	-238.52242	328.95114	143.00482	-228.86104	325.96704	144.14462	-266.27936
530	5.29	42.956814	1440.568	-150.64911	29.409916	1413.5861	-142.9541	31.998041	1417.0533	-180.63522	33.803276	1067.6658	-38.558292	49.780518	1063.5983	-289.16214	204.09767	1073.1375	-76.491837	212.48752	1069.9545	-194.29803	218.60211	1128.5698	-143.65721	224.96848	1102.6948	-154.49019	225.09383	1098.895	-115.17863	8.9408064	539.94623	-25.35696	-66.634285	636.79419	-80.594452	-67.770744	722.52777	-62.605412	-40.650715	856.47699	-38.765522	33.950962	690.33508	3.3950861	52.942181	836.59491	34.603374	48.039078	789.20801	39.3223	45.740345	760.18579	35.406986	11.64753	775.61658	36.013409	1.2023625	459.13367	-23.364601	-49.026054	453.57547	-82.452019	-5.1201787	203.18903	-102.90546	59.305443	95.818504	-76.906281	-42.641197	398.27524	-113.32183	-45.027935	369.9899	-106.53101	-27.100693	373.29303	-140.46341	133.92535	63.865097	-116.18735	-84.725632	64.144096	-109.76359	-25.313549	113.1523	-105.95081	-48.540062	96.673347	-95.033043	-53.856358	101.75549	-132.59528	28.636303	520.55609	-320.08508	-56.23653	605.91199	-270.02191	-56.60968	691.27075	-263.34116	-27.110445	821.66315	-261.71072	49.989269	671.97418	-332.46741	83.236679	817.13806	-345.03458	79.683998	766.49237	-353.77039	64.623985	742.65503	-354.73859	100.03233	734.5697	-342.89883	66.010132	473.68369	-325.11496	25.817118	429.38797	-282.5379	273.28333	312.13757	-294.92606				350.98077	243.22168	-277.1275	80.44825	385.71436	-223.26027	104.88335	372.75253	-214.68208	94.357758	357.06427	-248.10701	415.53687	289.9707	-237.09692	306.19855	101.07011	-236.37814	289.15347	171.82417	-238.90906	292.54568	143.33577	-228.45325	290.41589	144.57663	-266.03476
531	5.3	29.615208	1443.1896	-150.74617	16.018097	1416.2	-143.08257	18.759007	1419.6512	-180.71625	20.781252	1069.8234	-37.91502	36.360256	1066.9982	-288.17627	190.75496	1075.8306	-76.487488	199.30209	1073.4413	-194.10612	205.01779	1131.2461	-143.71783	211.69768	1105.6802	-154.14877	211.74052	1101.6714	-114.92423	5.2486863	540.42902	-25.279005	-72.235077	635.74438	-80.247627	-75.403488	721.46771	-62.358845	-51.313122	856.26477	-38.211708	27.40559	691.32404	3.2377024	42.504997	838.13385	34.799644	39.407131	790.16315	39.049541	37.349293	761.375	35.238293	2.8868861	776.10883	35.968361	-1.3580872	459.37097	-23.382692	-51.444553	453.23578	-82.542503	-6.0012751	203.35373	-102.77065	59.010155	96.163864	-76.894745	-44.644836	398.13446	-113.14621	-46.827358	369.8327	-106.32519	-29.051939	373.21942	-140.31511	133.79123	64.28672	-116.16426	-84.884644	63.859894	-109.74748	-25.598553	113.105	-105.84624	-48.795849	96.5429	-94.963478	-54.127579	101.67033	-132.52527	4.1066809	525.36444	-319.88266	-78.295555	612.61505	-269.42047	-76.267403	697.8277	-262.28134	-43.460758	827.20557	-260.76447	28.875141	676.19336	-332.15555	65.354874	819.70856	-344.72656	60.436325	769.62671	-353.70911	43.391335	745.84106	-354.55795	79.762009	736.20789	-343.42242	40.197399	476.93024	-324.67346	-1.0827688	434.13614	-281.87363	243.05806	309.94049	-294.22253				319.98303	239.15317	-275.87271	52.813732	389.85895	-221.9608	76.578911	376.45236	-213.50064	65.649521	360.57083	-246.62939	387.16864	283.09222	-235.56592	267.20413	99.505569	-235.97488	254.11584	171.2903	-238.42006	257.58429	141.94569	-227.235	254.63751	143.95425	-265.35748
